<?xml version="1.0" standalone="no"?>
<!DOCTYPE svg PUBLIC "-//W3C//DTD SVG 20010904//EN"
 "http://www.w3.org/TR/2001/REC-SVG-20010904/DTD/svg10.dtd">
<svg version="1.0" xmlns="http://www.w3.org/2000/svg"
 width="1024.000000pt" height="1024.000000pt" viewBox="0 0 1024.000000 1024.000000"
 preserveAspectRatio="xMidYMid meet">
<metadata>
Created by potrace 1.11, written by Peter Selinger 2001-2013
</metadata>
<g transform="translate(0.000000,1024.000000) scale(0.100000,-0.100000)"
fill="#000000" stroke="none">
<path d="M5049 10223 c-6 -7 -15 -10 -20 -7 -5 3 -9 1 -9 -4 0 -5 -12 -14 -26
-20 -14 -7 -23 -16 -20 -21 3 -4 -6 -7 -19 -5 -14 1 -23 -2 -19 -7 3 -5 -2 -9
-10 -9 -9 0 -16 -4 -16 -9 0 -5 -9 -11 -20 -14 -11 -3 -20 -12 -20 -20 0 -8
-7 -17 -15 -21 -8 -3 -15 -13 -15 -21 0 -9 -4 -13 -10 -10 -5 3 -10 -1 -10 -9
0 -9 -3 -16 -7 -16 -9 0 -33 -49 -33 -67 0 -7 -4 -13 -10 -13 -5 0 -10 -6 -10
-13 0 -15 -32 -81 -52 -104 -11 -14 -11 -16 2 -8 11 6 10 3 -3 -12 -9 -11 -14
-23 -10 -26 3 -4 1 -7 -6 -7 -7 0 -10 -4 -6 -9 3 -5 1 -12 -5 -16 -5 -3 -10
-15 -10 -26 0 -10 -5 -19 -11 -19 -5 0 -7 -4 -4 -10 3 -5 2 -10 -4 -10 -5 0
-8 -9 -6 -19 2 -11 -3 -22 -11 -25 -7 -3 -11 -12 -8 -21 3 -8 1 -15 -5 -15 -6
0 -11 -6 -11 -14 0 -8 -6 -17 -12 -19 -10 -4 -9 -6 1 -6 11 -1 11 -4 0 -18 -9
-10 -9 -14 -2 -10 9 5 8 0 -2 -19 -7 -15 -11 -33 -8 -42 4 -10 2 -13 -5 -8
-12 7 -13 -33 -1 -49 4 -6 4 -17 -1 -25 -12 -19 -13 -33 -1 -26 5 4 8 -2 6
-11 -2 -10 -4 -18 -5 -18 -6 0 -4 -57 2 -61 4 -3 8 -13 8 -22 0 -15 -2 -15
-10 -2 -5 8 -10 10 -10 5 0 -6 6 -17 12 -23 10 -10 10 -15 -2 -22 -12 -8 -12
-10 -1 -10 10 0 11 -3 2 -14 -7 -8 -8 -17 -3 -20 5 -3 9 -19 10 -36 0 -21 -3
-28 -11 -23 -9 5 -9 3 -1 -8 16 -21 17 -79 2 -79 -10 0 -10 -2 1 -9 9 -6 10
-11 2 -15 -6 -4 -11 -18 -11 -32 0 -14 -7 -36 -16 -49 -9 -14 -13 -25 -10 -25
4 0 -2 -10 -14 -22 -11 -12 -20 -30 -20 -40 0 -10 -5 -18 -11 -18 -6 0 -9 -6
-6 -14 3 -8 -1 -17 -10 -20 -9 -4 -13 -9 -10 -13 4 -3 -3 -19 -15 -36 -12 -17
-16 -27 -9 -23 10 7 10 4 0 -12 -7 -12 -17 -18 -21 -16 -4 3 -8 -4 -8 -15 0
-12 -4 -21 -8 -21 -5 0 -15 -12 -23 -27 -8 -16 -21 -34 -29 -41 -8 -8 -9 -11
-3 -7 9 4 11 1 7 -9 -3 -9 -10 -13 -15 -10 -5 3 -9 -2 -9 -11 0 -9 -6 -23 -12
-30 -36 -40 -38 -43 -25 -48 7 -3 4 -6 -6 -6 -10 -1 -15 -5 -12 -11 3 -5 1
-10 -6 -10 -7 0 -10 -3 -6 -6 8 -9 -16 -33 -27 -26 -5 3 -6 0 -2 -6 4 -6 0
-22 -9 -35 -8 -13 -12 -27 -8 -32 5 -4 2 -5 -4 -1 -8 4 -13 1 -13 -8 0 -9 -4
-16 -9 -16 -5 0 -14 -13 -21 -30 -7 -16 -17 -30 -22 -30 -5 0 -6 -5 -3 -10 3
-6 -1 -13 -9 -16 -9 -3 -16 -15 -16 -26 0 -12 -4 -17 -12 -12 -8 5 -9 2 -5 -9
4 -11 1 -17 -8 -17 -8 0 -14 -3 -13 -7 2 -14 -14 -43 -21 -38 -4 2 -8 -2 -9
-10 -1 -8 -3 -22 -4 -30 -1 -8 -4 -13 -6 -10 -9 9 -32 -17 -32 -37 0 -10 -4
-16 -10 -13 -5 3 -10 -3 -10 -15 0 -12 -4 -18 -10 -15 -5 3 -10 -3 -10 -14 0
-12 -5 -21 -11 -21 -6 0 -8 -7 -5 -16 3 -8 2 -12 -4 -9 -5 3 -15 -5 -22 -19
-6 -14 -15 -26 -20 -26 -4 0 -8 -9 -8 -20 0 -11 -3 -20 -8 -20 -4 0 -13 -14
-20 -30 -8 -17 -18 -28 -23 -24 -5 3 -9 -1 -9 -9 0 -8 -6 -20 -14 -27 -8 -6
-12 -19 -9 -27 4 -11 2 -14 -5 -9 -7 4 -12 1 -12 -9 0 -9 -5 -13 -10 -10 -6 4
-10 3 -9 -2 4 -21 -2 -34 -13 -27 -6 4 -8 3 -4 -4 3 -5 -5 -24 -19 -41 -15
-16 -26 -33 -26 -35 1 -16 -12 -35 -20 -30 -5 3 -9 -7 -9 -23 0 -22 -2 -25
-10 -13 -8 12 -10 11 -10 -7 0 -12 -8 -27 -17 -32 -10 -6 -13 -11 -8 -11 6 0
-1 -10 -15 -21 -14 -11 -18 -17 -10 -13 13 7 13 5 1 -9 -7 -9 -11 -17 -8 -17
3 0 -8 -14 -24 -31 -16 -18 -27 -34 -25 -36 3 -3 0 -10 -5 -17 -41 -48 -48
-60 -43 -67 3 -5 -2 -9 -11 -9 -9 0 -13 -4 -10 -10 3 -5 1 -10 -4 -10 -6 0
-11 -9 -11 -21 0 -11 -4 -17 -10 -14 -5 3 -10 1 -10 -5 0 -19 -46 -80 -55 -72
-5 4 -5 2 -2 -4 3 -6 -5 -27 -18 -46 -13 -20 -21 -38 -18 -42 4 -3 1 -6 -5 -6
-7 0 -12 -7 -12 -15 0 -8 -6 -14 -12 -12 -7 1 -13 -5 -13 -13 0 -8 -8 -21 -17
-28 -10 -7 -18 -20 -18 -28 0 -8 -4 -14 -10 -14 -5 0 -9 -6 -7 -12 1 -7 -4
-12 -10 -11 -7 2 -12 0 -12 -5 3 -20 -2 -45 -8 -39 -4 4 -13 -7 -20 -24 -7
-17 -17 -28 -22 -25 -5 4 -8 -2 -7 -11 2 -10 -5 -24 -15 -31 -11 -7 -19 -20
-19 -28 0 -8 -4 -14 -10 -14 -5 0 -10 -9 -10 -21 0 -11 -4 -17 -10 -14 -5 3
-10 -3 -10 -15 0 -12 -4 -18 -10 -15 -5 3 -10 -3 -10 -15 0 -12 -4 -18 -10
-15 -5 3 -10 -1 -10 -9 0 -9 -5 -16 -11 -16 -5 0 -7 -4 -4 -10 3 -5 1 -10 -4
-10 -6 0 -11 -5 -11 -11 0 -6 -7 -17 -15 -26 -8 -8 -13 -18 -10 -23 3 -4 -2
-11 -11 -14 -8 -3 -12 -10 -9 -16 3 -5 1 -10 -4 -10 -6 0 -11 -8 -11 -17 0 -9
-3 -13 -7 -10 -7 8 -53 -55 -53 -72 0 -6 -5 -11 -11 -11 -5 0 -7 -4 -4 -10 3
-5 1 -10 -6 -10 -7 0 -10 -3 -6 -6 5 -5 -10 -27 -40 -59 -7 -8 -13 -18 -13
-24 0 -5 -8 -15 -17 -20 -10 -6 -12 -11 -5 -11 7 0 5 -8 -8 -22 -42 -48 -50
-58 -47 -63 1 -2 -6 -14 -15 -25 -10 -11 -18 -25 -18 -30 0 -6 -4 -10 -10 -10
-5 0 -10 -7 -10 -15 0 -8 -4 -15 -10 -15 -5 0 -10 -7 -10 -15 0 -9 -7 -18 -15
-21 -8 -4 -12 -10 -10 -15 3 -5 -3 -16 -14 -26 -11 -9 -18 -20 -15 -25 3 -4 0
-8 -5 -8 -6 0 -11 -5 -11 -11 0 -18 -37 -59 -45 -51 -5 4 -5 1 -1 -5 8 -15
-17 -57 -27 -46 -4 3 -7 -1 -7 -10 0 -10 -3 -17 -8 -17 -4 0 -14 -15 -22 -32
-14 -33 -22 -45 -52 -78 -9 -10 -14 -21 -11 -24 3 -3 -1 -8 -10 -12 -9 -3 -14
-14 -12 -25 2 -11 0 -17 -4 -15 -4 3 -14 -6 -21 -19 -7 -13 -18 -22 -23 -18
-6 3 -7 1 -3 -5 3 -6 -1 -17 -9 -25 -8 -9 -15 -20 -15 -24 0 -5 -9 -19 -20
-31 -12 -12 -18 -22 -15 -22 4 0 -1 -7 -9 -16 -9 -8 -14 -20 -11 -25 4 -5 -1
-9 -9 -9 -9 0 -23 -17 -32 -40 -9 -22 -19 -38 -23 -35 -4 2 -13 -12 -20 -31
-7 -19 -17 -32 -22 -29 -5 4 -9 -1 -9 -10 0 -9 -10 -26 -22 -37 -13 -11 -16
-17 -8 -13 8 4 5 -3 -8 -14 -13 -11 -23 -22 -22 -25 1 -22 -1 -26 -11 -20 -7
4 -10 1 -7 -7 2 -7 -3 -22 -12 -31 -9 -10 -23 -31 -31 -46 -8 -14 -22 -36 -31
-47 -10 -11 -17 -24 -17 -28 0 -5 -9 -17 -21 -27 -12 -11 -19 -23 -16 -29 4
-5 -3 -13 -15 -16 -11 -4 -18 -9 -15 -12 5 -6 -73 -125 -86 -131 -4 -2 -4 -10
-1 -19 4 -9 2 -14 -3 -10 -5 3 -20 -14 -33 -39 -13 -24 -26 -42 -29 -40 -6 7
-31 -18 -25 -27 2 -4 -1 -7 -7 -7 -6 0 -9 -4 -6 -8 3 -5 -4 -14 -14 -22 -10
-8 -17 -17 -14 -22 3 -4 -2 -8 -10 -8 -10 0 -13 -6 -10 -15 4 -8 1 -15 -5 -15
-6 0 -11 -7 -11 -16 0 -8 -4 -12 -10 -9 -5 3 -10 -2 -10 -12 -1 -23 -25 -55
-34 -45 -4 4 -7 2 -5 -3 4 -17 -23 -65 -34 -58 -6 3 -7 1 -4 -4 4 -6 -3 -22
-14 -37 -11 -14 -18 -26 -14 -26 3 0 0 -6 -7 -14 -7 -8 -16 -12 -20 -9 -4 2
-5 -3 -2 -11 3 -9 2 -16 -2 -16 -5 0 -15 -14 -22 -30 -8 -17 -18 -28 -23 -25
-5 4 -6 -1 -3 -9 4 -9 -1 -18 -10 -22 -9 -3 -16 -13 -16 -21 0 -8 -5 -11 -12
-7 -6 4 -8 3 -4 -4 3 -6 -1 -18 -10 -26 -8 -9 -12 -16 -7 -16 4 0 1 -6 -8 -13
-15 -12 -31 -41 -34 -62 0 -5 -6 -9 -13 -7 -7 1 -15 -11 -18 -28 -4 -17 -13
-30 -21 -30 -8 0 -12 -4 -9 -8 3 -5 -2 -18 -12 -28 -9 -10 -23 -31 -31 -46 -8
-16 -18 -28 -23 -28 -4 0 -8 -6 -8 -13 0 -7 -9 -23 -21 -36 -12 -12 -19 -25
-16 -27 3 -3 -2 -14 -11 -25 -10 -10 -24 -27 -33 -37 -9 -10 -15 -26 -13 -35
1 -10 -2 -15 -6 -12 -11 7 -41 -35 -34 -47 3 -4 0 -8 -5 -8 -6 0 -11 -7 -11
-16 0 -8 -4 -13 -9 -10 -5 4 -15 -7 -23 -24 -7 -16 -17 -30 -21 -30 -5 0 -5
-4 -2 -10 3 -5 1 -10 -5 -10 -6 0 -9 -4 -6 -9 3 -5 -1 -11 -9 -15 -8 -3 -15
-10 -15 -16 0 -13 -60 -103 -72 -108 -4 -2 -8 -11 -8 -19 0 -9 -8 -23 -18 -32
-9 -9 -24 -29 -32 -46 -8 -16 -21 -36 -27 -43 -7 -7 -13 -20 -13 -28 0 -8 -4
-13 -9 -9 -5 3 -13 -5 -16 -17 -4 -13 -19 -33 -33 -46 -14 -12 -21 -22 -16
-22 5 0 -2 -10 -16 -23 -14 -12 -31 -34 -39 -49 -8 -15 -18 -25 -23 -22 -4 3
-8 -4 -8 -15 0 -12 -4 -21 -8 -21 -5 0 -14 -16 -22 -35 -8 -19 -18 -35 -22
-35 -5 0 -13 -11 -18 -25 -5 -14 -14 -25 -20 -25 -6 0 -8 -5 -5 -10 4 -6 -5
-24 -19 -41 -15 -17 -24 -34 -21 -39 3 -4 -2 -20 -10 -36 -7 -15 -12 -31 -9
-36 3 -4 0 -8 -5 -8 -6 0 -11 -9 -11 -20 0 -11 -4 -20 -9 -20 -5 0 -8 -13 -7
-30 2 -25 0 -27 -13 -17 -12 10 -13 9 -6 -3 12 -20 15 -100 4 -100 -5 0 -9 -9
-9 -19 0 -11 -5 -23 -10 -26 -6 -4 -8 -11 -5 -16 4 -5 2 -9 -4 -9 -9 0 -16
-10 -57 -88 -10 -17 -21 -32 -26 -32 -4 0 -8 -16 -8 -36 0 -21 4 -33 10 -29 7
4 7 -3 0 -20 -5 -14 -6 -24 -1 -21 5 3 8 -6 8 -20 1 -14 10 -39 23 -56 12 -16
19 -36 16 -44 -3 -8 -2 -13 2 -10 5 3 18 -15 30 -39 12 -25 29 -45 37 -45 9 0
19 -8 22 -18 9 -23 29 -42 37 -35 3 4 6 0 6 -7 0 -7 3 -10 6 -7 4 3 20 -8 35
-24 16 -17 29 -28 29 -24 0 3 7 0 15 -7 34 -31 43 -36 51 -30 4 4 4 -2 0 -13
-4 -11 -4 -16 0 -13 9 9 64 -20 64 -33 0 -6 7 -8 16 -5 8 3 12 2 9 -4 -3 -6
-2 -10 4 -10 6 0 22 -11 36 -25 14 -14 25 -23 25 -20 0 4 7 0 15 -9 8 -8 15
-19 15 -25 0 -6 7 -11 16 -11 8 0 12 -4 9 -10 -3 -5 3 -15 15 -22 11 -7 20
-18 20 -25 0 -7 5 -13 10 -13 6 0 10 -6 10 -13 0 -7 9 -19 19 -27 11 -7 18
-17 15 -22 -3 -4 0 -8 7 -8 7 0 9 -3 6 -6 -3 -4 5 -16 19 -26 14 -11 23 -23
20 -26 -10 -9 16 -32 36 -32 10 0 17 -3 15 -7 -2 -5 10 -21 27 -38 16 -16 25
-23 20 -15 -5 9 -1 7 8 -3 10 -11 18 -17 18 -14 0 4 11 -5 25 -19 14 -14 30
-22 37 -18 6 4 8 3 5 -2 -8 -13 2 -26 36 -47 15 -10 27 -24 27 -33 0 -8 5 -12
10 -9 6 3 10 -2 10 -12 0 -15 2 -16 10 -3 8 12 10 12 10 1 0 -7 16 -28 34 -46
19 -18 33 -35 31 -37 -3 -3 5 -10 18 -17 12 -6 33 -27 46 -46 13 -19 30 -35
39 -35 8 0 13 -2 10 -5 -8 -9 45 -65 61 -65 8 0 12 -3 8 -6 -3 -4 12 -24 33
-44 22 -21 40 -44 40 -51 0 -7 3 -10 6 -6 8 7 34 -17 34 -32 0 -12 40 -37 53
-33 5 1 6 -2 3 -7 -4 -5 -2 -12 4 -16 6 -4 7 -11 4 -17 -4 -7 -2 -8 4 -4 7 4
12 2 12 -4 0 -6 5 -8 12 -4 8 5 9 2 5 -9 -3 -9 -3 -16 1 -14 10 3 142 -131
142 -144 0 -6 5 -7 10 -4 6 3 10 -1 10 -10 0 -9 5 -13 10 -10 6 3 10 1 10 -5
0 -15 26 -41 34 -33 3 4 6 -1 6 -11 0 -9 5 -14 10 -11 6 3 10 -1 10 -10 0 -9
4 -13 10 -10 6 3 10 1 10 -4 0 -14 37 -51 50 -51 6 0 10 -5 10 -10 0 -6 41
-51 91 -101 50 -50 85 -88 78 -84 -8 5 -10 4 -5 -3 4 -7 12 -12 17 -12 14 0
39 -26 39 -41 0 -7 3 -10 6 -6 3 3 17 -5 31 -19 13 -13 28 -24 33 -24 6 0 10
-4 10 -10 0 -12 48 -60 60 -60 6 0 10 -5 10 -11 0 -6 7 -8 16 -5 10 4 13 2 8
-6 -5 -8 -2 -9 9 -5 9 3 23 0 31 -8 11 -11 16 -12 19 -2 4 9 6 9 6 0 1 -7 8
-10 16 -7 8 4 15 2 15 -4 0 -5 12 -7 26 -4 16 3 25 1 21 -5 -3 -5 0 -10 8 -10
8 0 15 3 15 7 0 3 9 6 19 6 11 0 17 -4 15 -8 -2 -4 56 -6 131 -6 74 1 135 5
135 10 0 4 5 8 11 8 5 0 7 -4 4 -10 -3 -5 -2 -10 4 -10 5 0 13 5 16 10 4 6 12
7 18 3 18 -11 38 -12 31 -2 -3 5 -1 9 5 9 5 0 13 -5 16 -10 4 -6 13 -7 23 -1
9 4 44 9 77 10 151 3 180 6 187 16 5 7 8 7 8 0 0 -6 9 -11 20 -12 11 -1 18 2
16 6 -3 4 1 8 9 8 8 0 12 -4 9 -9 -3 -4 0 -8 5 -8 6 0 11 6 11 13 0 8 3 7 10
-3 7 -12 12 -12 22 -2 14 14 32 16 23 3 -3 -6 4 -8 17 -4 13 3 48 6 79 7 30 2
62 6 69 11 8 5 11 4 7 -3 -5 -6 0 -8 13 -5 11 3 17 10 14 15 -4 6 4 3 17 -5
13 -8 33 -13 44 -11 41 7 81 8 92 1 6 -4 14 -3 18 3 4 6 12 7 23 1 9 -5 26 -5
37 -1 12 5 27 5 34 1 12 -8 116 -5 138 4 7 2 15 0 18 -5 6 -9 31 -8 41 2 3 4
13 4 21 1 23 -9 116 -10 141 -1 12 4 22 4 22 0 0 -4 49 -7 110 -6 72 0 110 -3
110 -10 0 -6 4 -5 9 2 11 18 12 18 38 4 16 -9 24 -9 29 -1 4 8 9 7 15 -2 5 -8
9 -9 9 -3 0 11 35 12 46 1 4 -3 15 -2 25 3 12 7 20 7 24 0 3 -5 13 -10 21 -10
8 0 13 4 10 9 -7 11 13 9 32 -2 6 -5 12 -4 12 0 0 5 9 9 19 9 11 0 17 -4 15
-8 -6 -10 10 -11 20 -1 10 11 37 12 30 2 -8 -13 10 -11 25 3 11 11 13 10 7 0
-5 -8 -1 -11 13 -9 11 2 24 6 27 10 4 4 12 7 18 7 6 0 5 -4 -3 -9 -8 -5 3 -9
33 -9 25 -1 48 3 51 9 4 5 12 6 18 2 18 -12 308 -12 301 -1 -4 6 3 5 14 -1 25
-13 35 -14 28 -2 -4 5 2 8 11 6 10 -2 18 -4 18 -5 0 -1 8 -3 18 -5 9 -2 15 1
11 6 -3 5 -1 9 5 9 5 0 12 -6 14 -12 4 -10 6 -10 6 0 1 6 6 12 12 12 5 0 7 -6
3 -13 -6 -9 -4 -9 8 1 9 7 27 11 41 8 15 -2 28 1 31 7 3 8 5 8 5 1 1 -11 53
-10 71 1 5 3 11 1 15 -5 4 -6 13 -7 23 -1 9 5 32 7 50 5 24 -3 31 0 26 9 -4 6
3 3 16 -8 17 -15 22 -16 18 -5 -6 17 13 18 75 5 21 -4 27 -2 22 7 -4 7 1 4 9
-6 9 -11 16 -15 16 -8 0 6 7 9 15 6 8 -4 23 0 32 7 12 10 15 10 9 1 -4 -7 -2
-12 6 -13 7 0 21 -2 30 -4 10 -2 20 1 23 6 3 4 16 5 28 0 12 -4 38 -7 57 -6
19 1 38 -3 42 -9 6 -8 8 -8 8 0 0 8 36 12 48 4 3 -2 71 -2 75 0 8 6 45 5 42 0
-5 -7 36 -9 215 -9 135 0 162 2 179 13 10 6 12 6 7 -2 -4 -7 -3 -12 3 -12 5 0
13 5 16 10 4 6 12 7 23 1 9 -5 25 -6 36 -2 27 8 48 8 65 -3 10 -6 12 -5 7 2
-7 11 14 17 39 12 38 -7 63 -4 79 9 11 9 16 10 12 4 -9 -17 6 -17 23 0 11 9
13 9 7 -1 -4 -6 -2 -12 3 -12 6 0 11 5 11 11 0 8 5 8 15 -1 8 -7 15 -9 15 -5
0 4 8 1 17 -6 15 -12 16 -12 10 5 -6 14 -4 16 5 9 7 -6 27 -12 43 -12 79 -5
154 -3 174 4 18 5 22 4 17 -6 -4 -8 0 -5 8 5 11 13 16 15 16 6 0 -7 3 -10 7
-7 3 4 13 1 21 -6 13 -10 15 -9 9 6 -4 12 -3 16 4 11 13 -8 88 -11 83 -3 -2 3
10 6 26 5 17 -1 30 -5 30 -11 0 -5 4 -4 9 4 5 8 16 11 25 8 9 -4 16 -2 16 3 0
5 9 7 20 5 11 -2 20 0 20 5 0 5 6 7 14 4 8 -3 23 4 33 15 9 12 24 21 33 21 13
0 13 1 0 10 -11 7 -11 10 -2 10 15 0 68 60 64 72 -1 4 2 8 8 8 16 0 56 46 52
60 -3 7 0 10 7 6 6 -4 11 -2 11 4 0 6 5 8 10 5 6 -3 10 0 10 8 0 8 7 18 16 21
8 3 13 10 10 15 -3 5 3 11 14 14 11 3 20 13 20 22 0 9 5 13 10 10 6 -3 10 1
10 10 0 9 5 13 10 10 6 -3 10 1 10 10 0 9 5 13 10 10 6 -3 10 -1 10 4 0 6 18
29 39 50 22 22 37 42 33 45 -3 3 -1 6 5 6 5 0 20 9 33 20 13 11 20 20 16 20
-4 0 -1 6 6 14 7 8 17 13 23 13 5 -1 11 9 13 22 3 19 6 21 13 10 7 -12 9 -12
9 0 0 7 11 24 25 37 14 13 25 28 25 34 0 5 6 9 13 8 6 -2 11 3 9 9 -1 7 4 13
12 13 8 0 18 9 21 20 4 11 10 18 14 15 4 -2 14 7 21 20 7 13 17 22 21 20 4 -3
10 4 14 15 3 11 14 20 22 20 9 0 14 3 10 6 -8 8 18 34 34 34 7 0 10 3 7 6 -8
7 75 93 85 87 4 -2 7 1 7 7 0 14 81 96 92 93 4 -2 4 5 1 15 -3 9 -2 14 2 9 5
-4 17 5 27 20 10 16 18 24 18 20 0 -4 12 5 26 20 15 15 31 27 36 25 5 -1 7 1
4 6 -3 5 1 18 9 28 15 19 15 18 9 -1 -3 -12 1 -9 11 8 8 15 20 27 26 27 6 0 7
5 4 10 -3 6 1 10 10 10 9 0 14 4 10 9 -3 6 4 15 15 21 11 6 20 18 20 28 0 15
2 15 10 2 5 -8 10 -10 10 -5 0 16 46 65 60 65 7 0 10 3 7 7 -4 3 7 19 25 35
17 15 28 28 24 28 -4 0 -1 6 6 14 7 8 16 12 21 9 4 -2 7 1 7 7 0 6 5 8 10 5 6
-4 10 -3 9 2 -3 20 2 34 11 28 6 -3 10 1 10 10 0 9 5 13 10 10 6 -3 10 1 10
10 0 9 4 14 8 11 5 -3 15 4 23 16 28 40 117 128 129 128 8 0 11 3 8 6 -4 3 10
23 30 44 20 21 43 46 50 55 7 8 18 13 23 9 5 -3 8 0 7 7 -2 7 13 18 32 25 19
7 34 17 33 23 -2 5 7 8 18 6 11 -2 29 5 39 15 11 11 24 20 30 20 6 0 10 5 10
11 0 5 6 7 13 3 6 -4 9 -3 4 1 -7 9 20 45 34 45 5 0 22 13 37 30 16 16 33 26
37 22 5 -4 5 -2 2 4 -4 7 -1 17 7 23 8 7 17 23 20 37 4 14 11 22 16 19 9 -6
14 8 11 28 0 4 3 7 9 7 6 0 9 6 8 13 -2 6 3 11 10 9 8 -1 11 2 8 7 -4 5 0 15
7 23 15 15 17 20 17 49 0 13 4 18 13 13 7 -5 6 0 -3 11 -9 11 -10 16 -2 11 9
-5 12 6 12 46 0 38 -3 49 -10 38 -8 -12 -10 -11 -7 5 1 11 6 26 10 33 5 6 5
12 0 12 -4 0 -14 14 -21 30 -8 17 -18 27 -24 24 -7 -5 -8 -2 -3 5 4 7 -2 22
-14 35 -12 13 -23 35 -25 50 -1 14 -6 29 -9 33 -4 3 -7 21 -7 39 0 18 -4 36
-10 39 -5 3 -10 15 -10 26 0 11 -4 17 -10 14 -5 -3 -10 2 -10 12 0 10 -13 34
-30 53 -16 19 -29 45 -30 58 0 12 -4 22 -10 22 -5 0 -10 7 -10 15 0 8 -5 15
-11 15 -5 0 -8 4 -5 9 3 5 -1 14 -9 21 -8 7 -15 19 -15 26 0 8 -5 14 -11 14
-5 0 -7 5 -4 10 3 6 1 10 -4 10 -6 0 -11 7 -11 16 0 8 -4 12 -10 9 -6 -3 -7 1
-4 9 3 9 1 16 -5 16 -6 0 -11 6 -11 14 0 7 -7 19 -15 26 -8 7 -15 22 -15 33 0
11 -3 17 -6 14 -8 -7 -70 84 -66 96 1 5 -1 6 -6 3 -5 -3 -14 6 -20 19 -7 14
-16 25 -22 25 -5 0 -10 6 -10 13 0 7 -9 23 -20 35 -11 12 -20 26 -20 32 0 6
-5 8 -10 5 -6 -3 -10 3 -10 15 0 12 -4 18 -10 15 -5 -3 -10 1 -10 9 0 9 -4 16
-10 16 -5 0 -10 6 -10 14 0 7 -14 27 -30 45 -17 17 -27 31 -23 31 3 0 -3 10
-15 23 -12 13 -19 27 -15 30 3 4 1 7 -5 7 -5 0 -20 17 -33 38 -12 20 -28 42
-36 49 -8 6 -16 18 -17 27 -1 9 -12 27 -23 40 -12 13 -19 27 -16 30 3 3 -2 8
-11 12 -9 3 -16 15 -16 25 0 10 -4 19 -10 19 -5 0 -10 7 -10 15 0 8 -7 15 -15
15 -8 0 -12 6 -9 14 3 9 -3 20 -15 28 -12 7 -21 21 -21 30 0 10 -4 18 -10 18
-5 0 -10 7 -10 16 0 18 -25 46 -34 37 -3 -4 -6 3 -6 14 0 11 -8 29 -17 41 -30
35 -48 62 -48 75 -1 7 -7 11 -14 9 -7 -1 -10 2 -7 7 4 5 -4 19 -16 30 -12 12
-18 21 -13 21 5 0 -1 10 -12 22 -11 13 -26 33 -32 46 -7 12 -17 20 -23 16 -6
-4 -8 -3 -5 3 6 10 -49 104 -65 111 -5 2 -8 10 -8 18 0 8 -4 14 -10 14 -5 0
-10 7 -10 15 0 8 -4 15 -10 15 -5 0 -10 9 -10 21 0 11 -4 17 -10 14 -5 -3 -10
1 -10 9 0 9 -4 16 -10 16 -5 0 -10 7 -10 15 0 8 -5 15 -11 15 -5 0 -8 4 -5 9
3 5 -1 11 -9 15 -8 3 -15 13 -15 21 0 9 -4 13 -10 10 -6 -3 -7 1 -4 9 4 11 0
16 -11 16 -9 0 -13 5 -10 10 3 6 1 10 -4 10 -6 0 -10 3 -10 8 3 19 -2 33 -11
27 -5 -3 -10 3 -10 15 0 13 -4 19 -12 14 -7 -5 -9 0 -6 14 4 15 0 23 -14 28
-11 3 -17 8 -14 11 3 3 0 11 -7 19 -7 7 -17 19 -22 26 -16 19 -69 112 -70 120
0 3 -4 10 -9 15 -5 5 -6 2 -1 -6 5 -9 4 -12 -3 -7 -7 4 -12 13 -12 20 0 7 -9
21 -20 31 -11 10 -20 24 -20 32 0 8 -9 23 -20 35 -11 12 -20 28 -20 35 0 8 -4
11 -10 8 -5 -3 -10 3 -10 15 0 12 -4 18 -10 15 -5 -3 -10 -1 -10 6 0 7 -11 27
-26 46 -14 18 -23 33 -20 33 7 0 -23 37 -46 59 -10 8 -18 19 -18 24 0 4 -4 13
-10 20 -49 60 -61 77 -53 77 4 0 0 5 -9 11 -10 5 -18 17 -18 24 0 8 -4 15 -10
15 -5 0 -10 7 -10 15 0 8 -4 15 -10 15 -5 0 -10 6 -10 13 0 7 -9 19 -20 27
-11 8 -20 23 -20 33 0 10 -4 15 -10 12 -5 -3 -10 1 -10 9 0 9 -4 16 -10 16 -5
0 -10 7 -10 15 0 8 -4 15 -10 15 -5 0 -10 7 -10 16 0 8 -4 12 -10 9 -6 -3 -10
1 -10 9 0 9 -5 16 -11 16 -5 0 -7 5 -4 10 3 6 -1 13 -9 16 -9 3 -16 12 -16 18
0 7 -8 21 -18 32 -10 10 -21 27 -25 37 -4 11 -12 15 -19 11 -7 -4 -10 -4 -6 1
4 4 -1 19 -12 33 -11 13 -17 29 -13 35 3 6 1 7 -5 3 -7 -4 -12 -1 -12 8 0 9
-5 16 -11 16 -5 0 -7 5 -4 10 3 6 -1 10 -9 10 -8 0 -18 10 -22 23 -4 12 -10
24 -15 27 -4 3 -9 11 -11 19 -2 7 -15 27 -30 45 -16 17 -28 39 -28 49 0 10 -3
16 -7 14 -5 -3 -14 1 -21 9 -7 8 -8 14 -2 14 5 0 1 9 -10 20 -11 11 -20 25
-20 31 0 5 -4 7 -10 4 -5 -3 -10 1 -10 9 0 9 -4 16 -9 16 -5 0 -8 11 -7 24 2
14 -1 23 -8 20 -6 -2 -22 16 -35 41 -13 25 -28 45 -32 45 -5 0 -9 5 -9 11 0 6
-12 26 -26 45 -15 19 -24 34 -20 34 3 0 -2 8 -11 18 -10 11 -22 17 -27 14 -5
-3 -6 0 -2 6 3 6 0 16 -7 24 -8 7 -12 19 -9 26 2 6 -4 12 -13 12 -9 0 -13 5
-10 10 3 6 1 10 -4 10 -6 0 -11 6 -11 13 0 6 -11 25 -25 41 -14 17 -28 40 -31
53 -4 12 -10 20 -15 17 -5 -3 -9 2 -9 11 0 10 -5 13 -12 9 -6 -4 -8 -3 -5 3 4
6 -2 21 -13 33 -11 12 -22 31 -25 41 -4 11 -11 16 -17 13 -7 -4 -8 -2 -4 4 4
7 -4 23 -18 37 -14 14 -22 25 -19 25 4 0 2 5 -5 12 -7 7 -12 20 -12 30 0 10
-3 17 -8 15 -4 -1 -8 2 -9 6 -1 5 -11 17 -22 26 -11 10 -18 21 -14 25 3 3 0 6
-7 6 -7 0 -11 3 -7 6 3 4 1 12 -6 20 -30 33 -35 42 -30 48 4 3 2 6 -4 6 -6 0
-13 9 -16 21 -3 12 -10 19 -14 16 -5 -3 -10 3 -10 14 -1 11 -11 28 -22 37 -11
9 -21 23 -23 31 -2 8 -12 25 -23 39 -11 13 -19 26 -17 29 2 2 -6 13 -17 22
-12 10 -21 26 -21 35 0 10 -4 14 -10 11 -5 -3 -10 3 -10 14 0 11 -8 25 -17 30
-10 6 -14 11 -10 11 4 0 -1 10 -12 22 -11 11 -18 26 -14 31 3 6 1 7 -4 4 -6
-4 -16 7 -23 23 -7 17 -16 30 -21 30 -5 0 -9 7 -9 15 0 8 -4 15 -10 15 -5 0
-10 5 -10 12 0 6 -11 26 -25 44 -14 18 -25 36 -25 39 0 4 -7 13 -15 22 -8 8
-13 19 -10 24 4 5 -1 9 -10 9 -9 0 -13 5 -10 10 3 6 1 10 -4 10 -6 0 -11 7
-11 15 0 8 -4 15 -10 15 -5 0 -10 7 -10 15 0 8 -5 15 -11 15 -5 0 -7 5 -4 10
3 6 -1 13 -9 16 -9 3 -16 12 -16 20 0 8 -4 14 -10 14 -5 0 -10 7 -10 15 0 8
-4 15 -10 15 -5 0 -10 8 -10 18 0 10 -9 24 -19 31 -11 8 -17 20 -14 28 3 8 0
13 -8 11 -7 -2 -13 3 -14 10 0 7 -7 17 -15 22 -8 5 -11 10 -6 10 5 0 -1 11
-14 25 -13 14 -20 25 -16 25 4 0 1 6 -6 14 -19 20 -41 53 -40 60 1 3 -9 16
-21 30 -13 13 -29 37 -37 53 -8 15 -25 40 -39 56 -14 15 -21 27 -17 27 4 0 -2
10 -14 22 -11 12 -20 28 -20 35 0 8 -4 11 -10 8 -5 -3 -10 3 -10 15 0 12 -4
18 -10 15 -5 -3 -10 1 -10 9 0 9 -4 16 -10 16 -5 0 -10 9 -10 21 0 11 -4 17
-10 14 -5 -3 -10 1 -10 9 0 9 -9 25 -20 36 -12 12 -18 25 -15 30 4 6 -1 10 -9
10 -9 0 -15 3 -14 8 2 4 -13 32 -32 62 -19 30 -33 58 -32 63 1 4 -5 7 -15 7
-9 0 -13 3 -10 7 4 3 -3 18 -15 31 -13 14 -17 22 -10 18 6 -4 12 -2 12 3 0 6
-5 11 -11 11 -15 0 -39 26 -32 34 4 3 1 6 -6 6 -7 0 -9 5 -6 10 3 6 1 10 -5
10 -6 0 -8 5 -5 10 3 6 3 10 -2 10 -4 0 -14 14 -21 30 -8 17 -18 27 -24 24 -6
-4 -8 -2 -4 4 3 6 -1 17 -9 26 -9 9 -15 21 -14 28 3 24 -1 39 -9 34 -4 -2 -9
7 -10 22 -1 14 -8 29 -15 34 -9 6 -8 8 3 8 9 0 11 3 5 8 -12 9 -18 30 -17 60
1 12 -3 22 -8 22 -6 0 -10 5 -10 11 0 5 5 7 11 3 8 -4 8 -1 2 12 -5 11 -11 39
-12 64 -2 25 -7 48 -13 51 -6 4 -5 9 3 12 12 4 11 7 -1 16 -12 8 -12 11 -1 11
11 0 11 3 0 17 -12 14 -12 16 0 8 11 -6 12 -5 5 6 -4 8 -9 23 -10 34 -1 11 -3
36 -5 55 -1 20 1 42 6 50 8 13 7 13 -9 1 -15 -12 -17 -12 -14 0 2 8 8 17 13
21 7 5 7 8 0 8 -6 0 -11 26 -13 57 -2 32 -8 61 -15 65 -9 6 -8 8 3 8 11 0 12
3 3 8 -6 4 -10 20 -9 35 2 15 -1 27 -6 27 -6 0 -8 7 -4 15 3 8 2 15 -3 15 -5
0 -7 11 -5 25 1 14 -3 31 -10 38 -7 7 -12 20 -10 30 1 9 -2 17 -7 17 -5 0 -9
9 -9 20 0 11 -4 20 -8 20 -5 0 -9 7 -10 15 -1 8 -3 22 -4 30 -1 8 -6 15 -11
15 -6 0 -7 3 -4 7 4 3 2 12 -4 20 -6 7 -8 13 -4 13 4 0 -3 16 -14 36 -12 19
-19 40 -16 45 4 5 2 9 -2 9 -5 0 -10 9 -11 20 -4 43 -6 49 -14 44 -4 -3 -8 0
-8 6 0 6 -7 18 -15 27 -8 8 -13 19 -10 24 4 5 1 9 -4 9 -6 0 -11 6 -11 14 0 8
-5 16 -10 18 -6 2 -12 13 -12 25 -2 14 -7 19 -17 15 -9 -4 -12 -1 -7 7 5 8 1
14 -13 18 -12 3 -21 10 -21 15 0 5 -4 6 -10 3 -5 -3 -10 -1 -10 5 0 6 -4 8
-10 5 -5 -3 -10 0 -10 8 0 13 -5 15 -55 18 -13 1 -22 6 -19 11 4 6 -3 5 -14
-1 -25 -13 -43 -14 -22 -1 11 7 5 9 -23 8 -20 -1 -42 -7 -48 -15z"/>
</g>
</svg>
